<svg width="25" height="25" viewBox="0 0 25 25" fill="none" xmlns="http://www.w3.org/2000/svg">
<path d="M16.65 20.1495L14.5683 22.1645L15.0569 24.9931L12.5007 23.6585L9.94449 24.9931L10.433 22.1645L8.35135 20.1495L11.2269 19.7345L12.5007 17.1714L13.7745 19.7345L16.65 20.1495ZM24.9974 20.1559L22.1219 19.741L20.8481 17.1779L19.5743 19.741L16.6988 20.1559L18.7804 22.171L18.2919 24.9996L20.8482 23.665L23.4044 24.9996L22.9159 22.171L24.9974 20.1559ZM5.42706 19.7129L4.15322 17.1479L2.87943 19.7129L0.00390625 20.1281L2.08554 22.1445L1.59705 24.9751L4.15327 23.6396L6.70949 24.9751L6.22099 22.1445L8.30263 20.1281L5.42706 19.7129ZM5.59889 15.9849L3.72057 15.4513C4.25534 13.5688 5.40944 11.873 6.97031 10.6764C7.60638 10.1888 8.29174 9.79228 9.01343 9.49026C7.8339 8.50448 7.08215 7.02308 7.08215 5.36921C7.08215 2.40836 9.49099 -0.000488281 12.4518 -0.000488281C15.4127 -0.000488281 17.8215 2.40836 17.8215 5.36921C17.8215 6.9932 17.0968 8.45098 15.9539 9.43647C16.7155 9.74117 17.4382 10.1503 18.1067 10.6596C19.6628 11.8451 20.8191 13.5274 21.3627 15.3966L19.4878 15.9419C18.5968 12.8785 15.7437 10.739 12.5495 10.739C9.33449 10.739 6.4763 12.8961 5.59889 15.9849ZM9.03476 5.36926C9.03476 7.25344 10.5677 8.78634 12.4518 8.78634C14.336 8.78634 15.8689 7.25344 15.8689 5.36926C15.8689 3.48508 14.336 1.95218 12.4518 1.95218C10.5677 1.95218 9.03476 3.48508 9.03476 5.36926Z" fill="#555555"/>
</svg>
