<svg width="25" height="25" viewBox="0 0 25 25" fill="none" xmlns="http://www.w3.org/2000/svg">
<g clip-path="url(#clip0)">
<path d="M23.4375 6.25H1.5625C0.701042 6.25 0 5.54896 0 4.6875V1.5625C0 0.701042 0.701042 0 1.5625 0H23.4375C24.299 0 25 0.701042 25 1.5625V4.6875C25 5.54896 24.299 6.25 23.4375 6.25ZM1.5625 1.04167C1.275 1.04167 1.04167 1.275 1.04167 1.5625V4.6875C1.04167 4.975 1.275 5.20833 1.5625 5.20833H23.4375C23.725 5.20833 23.9583 4.975 23.9583 4.6875V1.5625C23.9583 1.275 23.725 1.04167 23.4375 1.04167H1.5625Z" fill="#555555"/>
<path d="M9.89583 25.0002H1.5625C0.701042 25.0002 0 24.2991 0 23.4377V9.896C0 9.03454 0.701042 8.3335 1.5625 8.3335H9.89583C10.7573 8.3335 11.4583 9.03454 11.4583 9.896V23.4377C11.4583 24.2991 10.7573 25.0002 9.89583 25.0002ZM1.5625 9.37516C1.275 9.37516 1.04167 9.6085 1.04167 9.896V23.4377C1.04167 23.7252 1.275 23.9585 1.5625 23.9585H9.89583C10.1833 23.9585 10.4167 23.7252 10.4167 23.4377V9.896C10.4167 9.6085 10.1833 9.37516 9.89583 9.37516H1.5625Z" fill="#555555"/>
<path d="M23.4378 15.6252H15.1045C14.243 15.6252 13.542 14.9241 13.542 14.0627V9.896C13.542 9.03454 14.243 8.3335 15.1045 8.3335H23.4378C24.2993 8.3335 25.0003 9.03454 25.0003 9.896V14.0627C25.0003 14.9241 24.2993 15.6252 23.4378 15.6252ZM15.1045 9.37516C14.817 9.37516 14.5837 9.6085 14.5837 9.896V14.0627C14.5837 14.3502 14.817 14.5835 15.1045 14.5835H23.4378C23.7253 14.5835 23.9587 14.3502 23.9587 14.0627V9.896C23.9587 9.6085 23.7253 9.37516 23.4378 9.37516H15.1045Z" fill="#555555"/>
<path d="M23.4378 25.0002H15.1045C14.243 25.0002 13.542 24.2991 13.542 23.4377V19.271C13.542 18.4095 14.243 17.7085 15.1045 17.7085H23.4378C24.2993 17.7085 25.0003 18.4095 25.0003 19.271V23.4377C25.0003 24.2991 24.2993 25.0002 23.4378 25.0002ZM15.1045 18.7502C14.817 18.7502 14.5837 18.9835 14.5837 19.271V23.4377C14.5837 23.7252 14.817 23.9585 15.1045 23.9585H23.4378C23.7253 23.9585 23.9587 23.7252 23.9587 23.4377V19.271C23.9587 18.9835 23.7253 18.7502 23.4378 18.7502H15.1045Z" fill="#555555"/>
</g>
<defs>
<clipPath id="clip0">
<rect width="25" height="25" fill="white"/>
</clipPath>
</defs>
</svg>
