<svg width="25" height="26" viewBox="0 0 25 26" fill="none" xmlns="http://www.w3.org/2000/svg">
<path d="M22.3958 25.5H2.60417C1.16771 25.5 0 24.3312 0 22.8958V3.10417C0 1.66875 1.16771 0.5 2.60417 0.5H22.3958C23.8323 0.5 25 1.66875 25 3.10417V22.8958C25 24.3312 23.8323 25.5 22.3958 25.5ZM2.60417 1.54167C1.74271 1.54167 1.04167 2.24271 1.04167 3.10417V22.8958C1.04167 23.7573 1.74271 24.4583 2.60417 24.4583H22.3958C23.2573 24.4583 23.9583 23.7573 23.9583 22.8958V3.10417C23.9583 2.24271 23.2573 1.54167 22.3958 1.54167H2.60417Z" fill="#F4F0F0"/>
<path d="M17.1878 8.83317H7.81283C7.52533 8.83317 7.29199 8.59984 7.29199 8.31234C7.29199 8.02484 7.52533 7.7915 7.81283 7.7915H17.1878C17.4753 7.7915 17.7087 8.02484 17.7087 8.31234C17.7087 8.59984 17.4753 8.83317 17.1878 8.83317Z" fill="#F4F0F0"/>
<path d="M17.1878 13.5207H7.81283C7.52533 13.5207 7.29199 13.2873 7.29199 12.9998C7.29199 12.7123 7.52533 12.479 7.81283 12.479H17.1878C17.4753 12.479 17.7087 12.7123 17.7087 12.9998C17.7087 13.2873 17.4753 13.5207 17.1878 13.5207Z" fill="#F4F0F0"/>
<path d="M17.1878 18.2082H7.81283C7.52533 18.2082 7.29199 17.9748 7.29199 17.6873C7.29199 17.3998 7.52533 17.1665 7.81283 17.1665H17.1878C17.4753 17.1665 17.7087 17.3998 17.7087 17.6873C17.7087 17.9748 17.4753 18.2082 17.1878 18.2082Z" fill="#F4F0F0"/>
</svg>
