<svg width="25" height="25" viewBox="0 0 25 25" fill="none" xmlns="http://www.w3.org/2000/svg">
<g clip-path="url(#clip0)">
<path d="M17.1239 24.2661H3.229V6.16431C3.229 5.96162 3.0647 5.79736 2.86206 5.79736C2.65942 5.79736 2.49512 5.96162 2.49512 6.16431V24.3884C2.49512 24.7257 2.76948 25 3.10669 25H17.1239C17.3265 25 17.4908 24.8357 17.4908 24.6331C17.4908 24.4304 17.3265 24.2661 17.1239 24.2661Z" fill="black"/>
<path d="M22.4019 3.31792L19.283 0.111133C19.2139 0.0400879 19.119 0 19.0199 0H3.10669C2.76948 0 2.49517 0.274414 2.49512 0.611621V3.47358C2.49512 3.67627 2.65942 3.84053 2.86206 3.84053C3.0647 3.84053 3.229 3.67627 3.229 3.47358V0.733936H18.8649L21.772 3.7228V24.2661H19.6924C19.4897 24.2661 19.3254 24.4304 19.3254 24.6331C19.3254 24.8357 19.4897 25 19.6924 25H21.8942C22.2315 25 22.5058 24.7257 22.5058 24.3885V3.57373C22.5058 3.47817 22.4686 3.38643 22.4019 3.31792Z" fill="black"/>
<path d="M22.4012 3.31789L19.2823 0.111108C19.1781 0.00407709 19.0195 -0.0292237 18.8812 0.0269775C18.7429 0.0831786 18.6523 0.217602 18.6523 0.366968V3.57371C18.6523 3.77639 18.8167 3.94065 19.0193 3.94065H22.1382C22.2857 3.94065 22.4189 3.85237 22.4762 3.71648C22.5336 3.58064 22.5041 3.42356 22.4012 3.31789ZM19.3862 3.20676V1.27043L21.2695 3.20676H19.3862Z" fill="black"/>
<path d="M14.1988 1.94824H5.35767C5.02041 1.94824 4.74609 2.22261 4.74609 2.55981V4.58779C4.74609 4.92505 5.02046 5.19937 5.35767 5.19937H14.1988C14.536 5.19937 14.8104 4.925 14.8104 4.58784V2.55977C14.8104 2.22251 14.536 1.94824 14.1988 1.94824ZM14.0765 4.46543H5.47998V2.68208H14.0765V4.46543Z" fill="black"/>
<path d="M8.41056 7.1197C8.24928 6.99719 8.01906 7.02844 7.8964 7.18981L6.27516 9.32302L5.78825 8.89695C5.63576 8.76345 5.40397 8.77893 5.27047 8.93147C5.13702 9.08401 5.1525 9.31579 5.30499 9.44924L6.08776 10.1342C6.15495 10.1929 6.24093 10.2249 6.32936 10.2249C6.34166 10.2249 6.35402 10.2243 6.36642 10.2231C6.46759 10.2128 6.56002 10.1611 6.62155 10.0801L8.48068 7.63386C8.60329 7.47253 8.57189 7.24231 8.41056 7.1197Z" fill="black"/>
<path d="M19.4535 7.04492H10.2117C10.009 7.04492 9.84473 7.20918 9.84473 7.41186C9.84473 7.61455 10.009 7.77881 10.2117 7.77881H19.4535C19.6561 7.77881 19.8205 7.61455 19.8205 7.41186C19.8205 7.20918 19.6561 7.04492 19.4535 7.04492Z" fill="black"/>
<path d="M16.2119 8.26807H10.2117C10.009 8.26807 9.84473 8.43232 9.84473 8.63501C9.84473 8.83769 10.009 9.00195 10.2117 9.00195H16.2119C16.4146 9.00195 16.5789 8.83769 16.5789 8.63501C16.5789 8.43232 16.4146 8.26807 16.2119 8.26807Z" fill="black"/>
<path d="M17.5818 9.49072H10.2117C10.009 9.49072 9.84473 9.65498 9.84473 9.85767C9.84473 10.0604 10.009 10.2246 10.2117 10.2246H17.5818C17.7844 10.2246 17.9487 10.0604 17.9487 9.85767C17.9487 9.65498 17.7844 9.49072 17.5818 9.49072Z" fill="black"/>
<path d="M8.41056 12.11C8.24928 11.9874 8.01906 12.0187 7.8964 12.1801L6.27516 14.3133L5.78825 13.8872C5.63576 13.7538 5.40397 13.7692 5.27047 13.9217C5.13702 14.0743 5.1525 14.306 5.30499 14.4395L6.08776 15.1244C6.15495 15.1831 6.24093 15.2152 6.32936 15.2152C6.34166 15.2152 6.35402 15.2145 6.36642 15.2134C6.46759 15.2031 6.56002 15.1513 6.62155 15.0703L8.48068 12.6241C8.60329 12.4628 8.57189 12.2327 8.41056 12.11Z" fill="black"/>
<path d="M19.4535 12.0352H10.2117C10.009 12.0352 9.84473 12.1994 9.84473 12.4021C9.84473 12.6048 10.009 12.769 10.2117 12.769H19.4535C19.6561 12.769 19.8205 12.6048 19.8205 12.4021C19.8205 12.1994 19.6561 12.0352 19.4535 12.0352Z" fill="black"/>
<path d="M16.2119 13.2583H10.2117C10.009 13.2583 9.84473 13.4226 9.84473 13.6252C9.84473 13.8279 10.009 13.9922 10.2117 13.9922H16.2119C16.4146 13.9922 16.5789 13.8279 16.5789 13.6252C16.5789 13.4226 16.4146 13.2583 16.2119 13.2583Z" fill="black"/>
<path d="M17.5818 14.4814H10.2117C10.009 14.4814 9.84473 14.6457 9.84473 14.8484C9.84473 15.0511 10.009 15.2153 10.2117 15.2153H17.5818C17.7844 15.2153 17.9487 15.0511 17.9487 14.8484C17.9487 14.6457 17.7844 14.4814 17.5818 14.4814Z" fill="black"/>
<path d="M19.4535 17.0259H10.2117C10.009 17.0259 9.84473 17.1901 9.84473 17.3928C9.84473 17.5955 10.009 17.7598 10.2117 17.7598H19.4535C19.6561 17.7598 19.8204 17.5955 19.8205 17.3928C19.8205 17.1901 19.6561 17.0259 19.4535 17.0259Z" fill="black"/>
<path d="M16.2119 18.249H10.2117C10.009 18.249 9.84473 18.4133 9.84473 18.616C9.84473 18.8187 10.009 18.9829 10.2117 18.9829H16.2119C16.4146 18.9829 16.5789 18.8187 16.5789 18.616C16.5789 18.4133 16.4146 18.249 16.2119 18.249Z" fill="black"/>
<path d="M17.5818 19.4717H10.2117C10.009 19.4717 9.84473 19.6359 9.84473 19.8386C9.84473 20.0413 10.009 20.2056 10.2117 20.2056H17.5818C17.7844 20.2056 17.9487 20.0413 17.9487 19.8386C17.9487 19.6359 17.7844 19.4717 17.5818 19.4717Z" fill="black"/>
<path d="M7.74824 17.0259H5.79126C5.454 17.0259 5.17969 17.3002 5.17969 17.6375V19.5944C5.17969 19.9316 5.45405 20.206 5.79126 20.206H7.74824C8.0855 20.206 8.35981 19.9316 8.35981 19.5944V17.6375C8.35981 17.3002 8.08545 17.0259 7.74824 17.0259ZM7.62598 19.4721H5.91362V17.7598H7.62598V19.4721Z" fill="black"/>
</g>
<defs>
<clipPath id="clip0">
<rect width="25" height="25" fill="white"/>
</clipPath>
</defs>
</svg>
