<svg width="25" height="25" viewBox="0 0 25 25" fill="none" xmlns="http://www.w3.org/2000/svg">
<path d="M21.6215 11.548C22.3536 11.0336 22.8383 10.1778 22.8383 9.21326C22.8383 7.6353 21.5621 6.35908 19.9842 6.35908C18.4062 6.35908 17.13 7.6353 17.13 9.21326C17.13 10.1778 17.6098 11.0336 18.3469 11.548C17.7186 11.7657 17.1448 12.1021 16.6601 12.5374C15.9923 11.9685 15.2058 11.5332 14.3451 11.276C15.3888 10.6428 16.0912 9.49027 16.0912 8.17943C16.0912 6.18101 14.4737 4.56348 12.4753 4.56348C10.4769 4.56348 8.85932 6.18595 8.85932 8.17943C8.85932 9.49027 9.55679 10.6428 10.6055 11.276C9.75465 11.5332 8.97804 11.9636 8.3152 12.5225C7.83043 12.0971 7.26652 11.7657 6.6482 11.553C7.38029 11.0385 7.86506 10.1828 7.86506 9.21821C7.86506 7.64025 6.58884 6.36403 5.01088 6.36403C3.43292 6.36403 2.15671 7.64025 2.15671 9.21821C2.15671 10.1828 2.63653 11.0385 3.37357 11.553C1.40977 12.2307 0 14.0955 0 16.2869V16.6133C0 16.6232 0.00989315 16.6331 0.0197863 16.6331H6.06945C6.03482 16.9052 6.01504 17.1871 6.01504 17.4691V17.8055C6.01504 19.2598 7.19232 20.437 8.64662 20.437H16.3138C17.7681 20.437 18.9454 19.2598 18.9454 17.8055V17.4691C18.9454 17.1871 18.9256 16.9052 18.891 16.6331H24.9802C24.9901 16.6331 25 16.6232 25 16.6133V16.2869C24.9901 14.0906 23.5853 12.2257 21.6215 11.548ZM17.9214 9.20831C17.9214 8.0706 18.8465 7.14559 19.9842 7.14559C21.1219 7.14559 22.0469 8.0706 22.0469 9.20831C22.0469 10.3312 21.1417 11.2463 20.0237 11.271C20.0089 11.271 19.999 11.271 19.9842 11.271C19.9693 11.271 19.9594 11.271 19.9446 11.271C18.8217 11.2512 17.9214 10.3361 17.9214 9.20831ZM9.64088 8.17943C9.64088 6.62125 10.9072 5.35493 12.4654 5.35493C14.0235 5.35493 15.2899 6.62125 15.2899 8.17943C15.2899 9.68318 14.1076 10.9149 12.6286 10.999C12.5742 10.999 12.5198 10.999 12.4654 10.999C12.411 10.999 12.3565 10.999 12.3021 10.999C10.8231 10.9149 9.64088 9.68318 9.64088 8.17943ZM2.93332 9.20831C2.93332 8.0706 3.85833 7.14559 4.99604 7.14559C6.13376 7.14559 7.05877 8.0706 7.05877 9.20831C7.05877 10.3312 6.15354 11.2463 5.03562 11.271C5.02078 11.271 5.01088 11.271 4.99604 11.271C4.9812 11.271 4.97131 11.271 4.95647 11.271C3.83854 11.2512 2.93332 10.3361 2.93332 9.20831ZM6.20795 15.8367H0.801346C1.02394 13.7295 2.80471 12.0773 4.96636 12.0625C4.97626 12.0625 4.98615 12.0625 4.99604 12.0625C5.00594 12.0625 5.01583 12.0625 5.02572 12.0625C6.05461 12.0674 6.99446 12.4483 7.72161 13.0666C7.0093 13.8383 6.48002 14.7881 6.20795 15.8367ZM18.144 17.8055C18.144 18.8195 17.318 19.6456 16.3039 19.6456H8.63672C7.62268 19.6456 6.7966 18.8195 6.7966 17.8055V17.4691C6.7966 14.3973 9.2501 11.8844 12.3021 11.7954C12.3565 11.8003 12.4159 11.8003 12.4703 11.8003C12.5247 11.8003 12.5841 11.8003 12.6385 11.7954C15.6905 11.8844 18.144 14.3973 18.144 17.4691V17.8055ZM18.7327 15.8367C18.4606 14.793 17.9412 13.8581 17.2339 13.0864C17.966 12.4533 18.9157 12.0724 19.9545 12.0625C19.9644 12.0625 19.9743 12.0625 19.9842 12.0625C19.9941 12.0625 20.004 12.0625 20.0139 12.0625C22.1755 12.0773 23.9563 13.7295 24.1789 15.8367H18.7327Z" fill="#555555"/>
</svg>
