<svg width="30" height="31" viewBox="0 0 30 31" fill="none" xmlns="http://www.w3.org/2000/svg">
<g clip-path="url(#clip0)">
<path d="M23.4863 24.7496C27.9866 20.0589 27.8323 12.6081 23.1415 8.10781C20.9458 6.00125 18.0196 4.82686 14.9767 4.83107C8.4763 4.82203 3.19934 10.0844 3.19036 16.5848C3.18616 19.6276 4.36055 22.5539 6.46711 24.7496L3.40483 28.8319C3.0498 29.3054 3.14573 29.9769 3.6191 30.332C4.09247 30.687 4.7641 30.5911 5.11913 30.1177L8.08712 26.1597C12.193 29.1513 17.7603 29.1513 21.8662 26.1597L24.8342 30.1177C25.1892 30.5911 25.8608 30.6871 26.3342 30.332C26.8076 29.9769 26.9036 29.3053 26.5485 28.8319L23.4863 24.7496ZM14.9767 26.2604C9.65339 26.2545 5.33943 21.9406 5.33353 16.6172C5.33353 11.2914 9.65094 6.97398 14.9767 6.97398C20.3025 6.97398 24.62 11.2914 24.62 16.6172C24.62 21.943 20.3025 26.2604 14.9767 26.2604Z" fill="black"/>
<path d="M9.12111 2.11446C7.00274 0.0488247 3.61098 0.0915787 1.54528 2.20995C-0.483432 4.29046 -0.483683 7.60895 1.54478 9.68978C1.96322 10.1081 2.64145 10.1081 3.05982 9.68978L9.12111 3.62956C9.53942 3.21112 9.53942 2.53289 9.12111 2.11446ZM2.43194 7.28751C1.66689 5.68559 2.34531 3.76674 3.94724 3.00162C4.82335 2.58318 5.84166 2.58318 6.71784 3.00162L2.43194 7.28751Z" fill="black"/>
<path d="M28.4077 2.11447C26.3157 0.0230396 22.9245 0.0230396 20.8325 2.11447C20.4142 2.53291 20.4142 3.21114 20.8325 3.62951L26.8927 9.68974C27.3111 10.108 27.9894 10.108 28.4077 9.68974C30.4992 7.59774 30.4992 4.20654 28.4077 2.11447ZM27.5238 7.29073L27.5217 7.2886L23.2358 3.00271C24.4683 2.43635 25.9222 2.68622 26.8948 3.63165C27.8589 4.59478 28.111 6.06104 27.5238 7.29073Z" fill="black"/>
<path d="M14.9768 9.11621C14.385 9.11621 13.9053 9.59592 13.9053 10.1877V16.2597L10.9052 20.2595C10.5501 20.733 10.6461 21.4045 11.1194 21.7596C11.5928 22.1146 12.2644 22.0187 12.6195 21.5453L15.8339 17.2594C15.973 17.0739 16.0482 16.8484 16.0482 16.6165V10.1877C16.0482 9.59592 15.5685 9.11621 14.9768 9.11621Z" fill="black"/>
</g>
<defs>
<clipPath id="clip0">
<rect width="30" height="30" fill="white" transform="translate(0 0.545898)"/>
</clipPath>
</defs>
</svg>
