<svg width="18" height="18" viewBox="0 0 18 18" fill="none" xmlns="http://www.w3.org/2000/svg">
<path d="M8.94437 5.44642C9.77699 5.44642 10.2772 5.89055 10.2772 6.63972C10.2772 8.00036 7.84842 8.37539 7.84842 10.0267C7.84842 10.4708 8.13911 10.9562 8.73621 10.9562C9.65227 10.9562 9.54147 10.2762 9.87478 9.78986C10.3185 9.13803 12.387 8.44403 12.387 6.63928C12.387 4.68289 10.6388 3.86328 8.86182 3.86328C7.16922 3.86328 5.61389 5.07094 5.61389 6.43157C5.61389 6.9865 6.03065 7.27809 6.51649 7.27809C7.86187 7.27854 7.16832 5.44642 8.94437 5.44642Z" fill="#F4F0F0"/>
<path d="M9.92993 12.9975C9.92993 12.3726 9.41627 11.8594 8.79181 11.8594C8.16734 11.8594 7.65369 12.3735 7.65369 12.9975C7.65369 13.6224 8.16734 14.1356 8.79181 14.1356C9.41627 14.1356 9.92993 13.6224 9.92993 12.9975Z" fill="#F4F0F0"/>
<path d="M18 9C18 4.03748 13.9625 0 9 0C4.03748 0 0 4.03748 0 9C0 13.9625 4.03748 18 9 18C13.9625 18 18 13.963 18 9ZM0.897219 9C0.897219 4.5323 4.5323 0.897219 9 0.897219C13.4677 0.897219 17.1028 4.5323 17.1028 9C17.1028 13.4677 13.4677 17.1028 9 17.1028C4.5323 17.1028 0.897219 13.4677 0.897219 9Z" fill="#F4F0F0"/>
</svg>
