<svg width="23" height="22" viewBox="0 0 23 22" fill="none" xmlns="http://www.w3.org/2000/svg">
<g clip-path="url(#clip0)">
<path d="M5.84734 12.8964L5.08156 15.6252L2.28262 15.6818C1.44614 14.2008 0.97168 12.5064 0.97168 10.7058C0.97168 8.96463 1.41529 7.32271 2.20162 5.87695H2.20222L4.69407 6.31303L5.78564 8.67735C5.55718 9.31308 5.43265 9.99559 5.43265 10.7058C5.43274 11.4766 5.579 12.2151 5.84734 12.8964Z" fill="white"/>
<path d="M22.7798 8.74414C22.9062 9.37932 22.972 10.0353 22.972 10.7057C22.972 11.4574 22.8892 12.1907 22.7315 12.898C22.196 15.305 20.7968 17.4066 18.8585 18.8939L18.8579 18.8934L15.7193 18.7405L15.2751 16.0936C16.5613 15.3736 17.5664 14.2468 18.0959 12.898H12.2139V8.74414H18.1817H22.7798Z" fill="white"/>
<path d="M18.8571 18.8931L18.8577 18.8937C16.9727 20.34 14.578 21.2054 11.9713 21.2054C7.78223 21.2054 4.14015 18.9705 2.28223 15.6814L5.84695 12.896C6.7759 15.2626 9.16747 16.9472 11.9713 16.9472C13.1765 16.9472 14.3055 16.6362 15.2743 16.0933L18.8571 18.8931Z" fill="white"/>
<path d="M18.9925 2.62286L15.429 5.40766C14.4263 4.8094 13.2411 4.46381 11.9712 4.46381C9.10397 4.46381 6.66764 6.22571 5.78524 8.67711L2.20177 5.87671H2.20117C4.03189 2.50749 7.7199 0.205566 11.9712 0.205566C14.6403 0.205566 17.0874 1.11308 18.9925 2.62286Z" fill="white"/>
</g>
<defs>
<clipPath id="clip0">
<rect width="22" height="21" fill="white" transform="translate(0.97168 0.205566)"/>
</clipPath>
</defs>
</svg>
