<svg width="19" height="24" viewBox="0 0 19 24" fill="none" xmlns="http://www.w3.org/2000/svg">
<path d="M9.05609 0.785156C5.93514 0.785156 3.39603 3.32426 3.39603 6.44521V8.70924H2.26402C1.01541 8.70924 0 9.72465 0 10.9733V21.1614C0 22.41 1.01541 23.4254 2.26402 23.4254H15.8482C17.0968 23.4254 18.1122 22.41 18.1122 21.1614V10.9733C18.1122 9.72465 17.0968 8.70924 15.8482 8.70924H14.7161V6.44521C14.7161 3.32426 12.177 0.785156 9.05609 0.785156ZM5.66006 6.44521C5.66006 4.57287 7.18374 3.04918 9.05609 3.04918C10.9284 3.04918 12.4521 4.57287 12.4521 6.44521V8.70924H5.66006V6.44521ZM15.8504 21.1614H10.1881V18.5826C10.8616 18.1898 11.3201 17.4676 11.3201 16.6333C11.3201 15.3847 10.3047 14.3693 9.05609 14.3693C7.80748 14.3693 6.79207 15.3847 6.79207 16.6333C6.79207 17.4665 7.25053 18.1898 7.92408 18.5826V21.1614H2.26402V10.9733H15.8482L15.8504 21.1614V21.1614Z" fill="#D34C11"/>
</svg>
