<svg width="17" height="16" viewBox="0 0 17 16" fill="none" xmlns="http://www.w3.org/2000/svg">
<g clip-path="url(#clip0)">
<path d="M8.4422 8.03467C5.27944 8.03467 3.5376 9.53089 3.5376 12.2478C3.5376 12.46 3.70958 12.6319 3.92177 12.6319H12.9626C13.1748 12.6319 13.3468 12.46 13.3468 12.2478C13.3468 9.53103 11.605 8.03467 8.4422 8.03467ZM4.31992 11.8636C4.47103 9.83222 5.85596 8.80303 8.4422 8.80303C11.0284 8.80303 12.4134 9.83222 12.5646 11.8636H4.31992V11.8636Z" fill="#F4F0F0"/>
<path d="M8.44213 2.10547C6.98932 2.10547 5.8938 3.22303 5.8938 4.70491C5.8938 6.2302 7.03697 7.47095 8.44213 7.47095C9.8473 7.47095 10.9905 6.2302 10.9905 4.70504C10.9905 3.22303 9.89495 2.10547 8.44213 2.10547ZM8.44213 6.70273C7.46058 6.70273 6.66214 5.80658 6.66214 4.70504C6.66214 3.64396 7.41076 2.87381 8.44213 2.87381C9.457 2.87381 10.2221 3.66098 10.2221 4.70504C10.2221 5.80658 9.42369 6.70273 8.44213 6.70273Z" fill="#F4F0F0"/>
</g>
<circle cx="8.65259" cy="8" r="7.5" stroke="#F4F0F0"/>
<defs>
<clipPath id="clip0">
<rect width="10.5263" height="10.5263" fill="white" transform="translate(3.17896 2.10547)"/>
</clipPath>
</defs>
</svg>
