<svg width="151" height="38" viewBox="0 0 151 38" fill="none" xmlns="http://www.w3.org/2000/svg">
<path d="M54.9692 11.4681C54.9692 15.787 50.8664 18.7504 42.6607 20.3575C41.4368 24.8689 40.7225 27.3519 40.519 27.8077C40.315 28.2634 40.1771 28.4913 40.1051 28.4913C39.8893 28.4913 39.6733 28.3594 39.4573 28.0953C39.2413 27.8316 39.1333 27.4475 39.1333 26.9436C39.1333 26.4398 39.7991 23.729 41.1308 18.8098C42.4625 13.8913 43.2002 10.664 43.3444 9.12827C42.9603 8.8646 42.7687 8.50468 42.7687 8.04826C42.7687 7.59302 43.4399 7.16101 44.7841 6.75272C46.1275 6.34514 47.531 6.14111 48.9949 6.14111C50.4581 6.14111 51.8201 6.63909 53.0799 7.63457C54.3398 8.63099 54.9692 9.90845 54.9692 11.4681ZM53.1698 11.6839C53.1698 10.5806 52.7498 9.70442 51.9102 9.05666C51.0702 8.40865 50.1226 8.08489 49.067 8.08489C48.0109 8.08489 46.6917 8.34902 45.1083 8.87681C45.1318 8.9726 45.144 9.1285 45.144 9.3445C45.144 10.7842 44.4835 13.8559 43.1645 18.5579C46.2355 17.9101 48.6712 16.9625 50.4705 15.7149C52.2702 14.4675 53.1698 13.1236 53.1698 11.6839Z" fill="white"/>
<path d="M68.1778 17.0824C68.1778 19.8897 67.2657 22.4934 65.4426 24.8924C63.619 27.2922 61.5074 28.4914 59.1083 28.4914C57.9321 28.4914 57.0026 27.9578 56.3189 26.89C55.6349 25.8227 55.2933 24.4426 55.2933 22.751C55.2933 21.0594 55.6828 19.3137 56.4628 17.5141C57.242 15.7147 58.322 14.2154 59.7021 13.0154C61.0812 11.8162 62.551 11.2158 64.1106 11.2158C65.3346 11.2158 66.3178 11.7981 67.0619 12.9617C67.8057 14.1255 68.1778 15.4987 68.1778 17.0824ZM60.3499 14.7068C59.2342 15.8831 58.4063 17.2566 57.8666 18.828C57.3266 20.3996 57.0568 22.0375 57.0568 23.7408C57.0568 25.4449 57.728 26.5242 59.0722 26.9797C60.4637 26.8843 61.7475 26.2483 62.9231 25.0723C64.0987 23.897 64.9746 22.5655 65.5503 21.0774C66.1263 19.5896 66.4141 18.2704 66.4141 17.1185C66.4141 15.9667 66.2164 14.9951 65.8203 14.2032C65.4245 13.4115 64.8786 12.8715 64.1827 12.5837C62.7435 12.8236 61.4656 13.5315 60.3499 14.7068Z" fill="white"/>
<path d="M91.8238 11.2158C92.4232 11.2158 92.981 11.6119 93.4971 12.4036C94.0129 13.1955 94.2711 14.3173 94.2711 15.7687C94.2711 17.2209 94.0312 18.9538 93.5513 20.9692C93.0709 22.9848 92.4952 24.7424 91.824 26.2422C91.1518 27.742 90.5641 28.4914 90.0603 28.4914C89.7238 28.4914 89.5564 28.2879 89.5564 27.8796C89.5564 27.472 89.8084 26.6681 90.3122 25.4684C91.824 21.8689 92.5795 18.6425 92.5795 15.7868C92.5795 14.0356 92.2316 13.1594 91.5361 13.1594C91.0802 13.1594 90.6304 13.3817 90.1864 13.8257C89.7422 14.2697 89.3822 14.6531 89.1066 14.9771C88.8303 15.3011 88.4767 15.7687 88.0452 16.3808C87.6131 16.9924 87.2408 17.5324 86.9292 18.0001C86.6172 18.4681 86.1735 19.14 85.5975 20.016C85.0218 20.8917 84.5837 21.5515 84.2839 21.9952C83.9836 22.4397 83.546 23.2133 82.9701 24.317C81.5064 27.1006 80.6067 28.4917 80.2708 28.4917C80.1268 28.4917 79.9766 28.3961 79.8209 28.2036C79.6645 28.0118 79.5871 27.7845 79.5871 27.5199C79.5871 27.256 79.8866 26.4582 80.4868 25.1265C81.0862 23.7948 81.6802 22.211 82.2683 20.3759C82.8562 18.5404 83.1501 16.8307 83.1501 15.2471C83.1501 14.6714 82.964 14.1797 82.5923 13.7717C82.2199 13.3639 81.9086 13.1596 81.6567 13.1596C81.4048 13.1596 81.1824 13.2021 80.9906 13.2857C80.7985 13.37 80.5887 13.508 80.3609 13.6998C80.1325 13.8919 79.9165 14.09 79.7129 14.2936C79.5089 14.4976 79.257 14.7857 78.9571 15.1574C78.6569 15.5295 78.3932 15.8716 78.1655 16.1829C77.937 16.4952 77.6372 16.9208 77.2655 17.4608C76.8932 18.0004 76.5757 18.4629 76.3118 18.8461C75.4239 20.1902 74.6799 21.3059 74.0802 22.1934C73.4801 23.0811 72.8441 24.0773 72.1726 25.1808C70.8287 27.3884 70.1089 28.4919 70.0133 28.4919C69.7734 28.4919 69.5275 28.3301 69.2754 28.0059C69.0235 27.6824 68.9572 27.3044 69.0774 26.8724C69.1972 26.4406 69.4611 25.4808 69.8691 23.993C70.277 22.5056 70.6791 21.0723 71.075 19.6922C71.4711 18.3126 71.7284 16.8194 71.8488 15.2114C71.9686 13.604 72.0345 12.5362 72.0468 12.0082C72.0587 11.4809 72.2027 11.2163 72.4788 11.2163C72.7544 11.2163 73.0305 11.4088 73.3064 11.7922C73.582 12.1763 73.7205 12.7821 73.7205 13.6094C73.7205 14.4375 73.4686 15.9434 72.9645 18.1264C72.4607 20.3102 71.8129 22.5054 71.0212 24.7128C74.068 19.4581 76.3595 15.8951 77.8952 14.0236C79.4305 12.1521 80.7504 11.2163 81.8541 11.2163C82.4059 11.2163 83.0419 11.6607 83.7618 12.5482C84.4814 13.4359 84.8415 14.4197 84.8415 15.4992C84.8415 16.5792 84.5534 18.103 83.9778 20.07C85.9448 16.6393 87.5044 14.306 88.6565 13.0699C89.8081 11.8338 90.8635 11.2158 91.8238 11.2158Z" fill="white"/>
<path d="M110.718 17.0824C110.718 19.8897 109.806 22.4934 107.983 24.8924C106.159 27.2922 104.048 28.4914 101.649 28.4914C100.473 28.4914 99.5434 27.9578 98.8595 26.89C98.1756 25.8227 97.834 24.4426 97.834 22.751C97.834 21.0594 98.2235 19.3137 99.0034 17.5141C99.7829 15.7147 100.862 14.2154 102.243 13.0154C103.622 11.8162 105.091 11.2158 106.652 11.2158C107.875 11.2158 108.859 11.7981 109.603 12.9617C110.346 14.1255 110.718 15.4987 110.718 17.0824ZM102.89 14.7068C101.775 15.8831 100.947 17.2566 100.407 18.828C99.8672 20.3996 99.5974 22.0375 99.5974 23.7408C99.5974 25.4449 100.268 26.5242 101.613 26.9797C103.004 26.8843 104.288 26.2483 105.464 25.0723C106.639 23.897 107.515 22.5655 108.091 21.0774C108.667 19.5896 108.955 18.2704 108.955 17.1185C108.955 15.9667 108.757 14.9951 108.361 14.2032C107.965 13.4115 107.419 12.8715 106.723 12.5837C105.283 12.8236 104.006 13.5315 102.89 14.7068Z" fill="white"/>
<path d="M111.905 37.6686C111.666 37.6686 111.438 37.5249 111.222 37.2368C111.006 36.9487 110.898 36.625 110.898 36.2648C110.898 35.9054 111.245 34.4173 111.941 31.8023C114.149 23.5006 115.456 16.9621 115.864 12.1873C115.913 11.6114 116.032 11.2998 116.224 11.2517C116.272 11.2277 116.344 11.2155 116.441 11.2155C116.728 11.2155 117.022 11.4376 117.322 11.8814C117.622 12.3258 117.79 12.7693 117.826 13.2131C117.862 13.6575 117.568 15.1871 116.944 17.8019C118.143 15.6189 119.415 13.939 120.759 12.7632C122.103 11.5879 123.374 10.9995 124.574 10.9995C125.774 10.9995 126.649 11.5522 127.201 12.6554C127.753 13.7592 128.029 15.1808 128.029 16.9201C128.029 18.6598 127.357 20.4714 126.013 22.3548C124.669 24.2383 123.104 25.7322 121.317 26.8357C119.529 27.9396 117.939 28.4911 116.548 28.4911C115.636 28.4911 114.964 28.3111 114.532 27.9511C114.197 29.3908 113.878 30.8063 113.578 32.1981C113.278 33.5895 113.033 34.6331 112.84 35.3294C112.458 36.8889 112.145 37.6686 111.905 37.6686ZM114.857 26.5117C115.264 26.6321 115.829 26.692 116.548 26.692C117.269 26.692 118.192 26.4342 119.32 25.9179C120.448 25.4025 121.515 24.7247 122.523 23.8847C123.531 23.0451 124.382 21.9834 125.079 20.6998C125.774 19.4163 126.122 18.09 126.122 16.7228C126.122 14.1315 125.57 12.8355 124.466 12.8355C123.363 12.8355 121.905 13.8376 120.094 15.8408C118.282 17.8444 116.873 20.0222 115.865 22.3729C115.793 22.7331 115.636 23.3754 115.397 24.2984C115.157 25.2222 114.977 25.9599 114.857 26.5117Z" fill="white"/>
<path d="M130.512 15.0667L130.477 12.5834C130.477 11.8878 130.512 11.4919 130.584 11.3959C130.657 11.3001 130.801 11.2459 131.016 11.2339C131.232 11.2221 131.484 11.4262 131.773 11.8457C132.06 12.2658 132.217 12.7398 132.24 13.2673C132.312 14.5871 132.084 16.6748 131.557 19.5295C132.612 17.0589 133.56 15.2351 134.4 14.0593C135.239 12.8837 136.169 12.0796 137.189 11.6478C138.208 11.2158 139.03 11.1681 139.654 11.5039C140.11 11.7441 140.05 12.0439 139.474 12.4036C139.306 12.4998 139.054 12.6078 138.718 12.7276C138.382 12.848 138.028 13.0279 137.657 13.2676C137.284 13.5078 136.967 13.7174 136.703 13.8975C136.439 14.0776 136.145 14.3779 135.821 14.7972C135.497 15.2172 135.257 15.5168 135.101 15.6969C134.945 15.877 134.705 16.2611 134.382 16.8487C134.058 17.4369 133.86 17.8146 133.788 17.9825C132.348 20.6217 131.382 22.7634 130.891 24.4064C130.399 26.0504 130.057 27.1661 129.865 27.7535C129.672 28.3421 129.421 28.6478 129.109 28.6717C128.869 28.6957 128.647 28.4978 128.443 28.0777C128.239 27.6582 128.221 27.1959 128.389 26.6923C129.757 22.5652 130.464 18.6899 130.512 15.0667Z" fill="white"/>
<path d="M150.955 17.0824C150.955 19.8897 150.043 22.4934 148.22 24.8924C146.396 27.2922 144.285 28.4914 141.886 28.4914C140.71 28.4914 139.78 27.9578 139.097 26.89C138.412 25.8227 138.07 24.4426 138.07 22.751C138.07 21.0594 138.461 19.3137 139.24 17.5141C140.02 15.7147 141.099 14.2154 142.48 13.0154C143.859 11.8162 145.328 11.2158 146.888 11.2158C148.112 11.2158 149.095 11.7981 149.84 12.9617C150.583 14.1255 150.955 15.4987 150.955 17.0824ZM143.127 14.7068C142.011 15.8831 141.184 17.2566 140.644 18.828C140.104 20.3996 139.834 22.0375 139.834 23.7408C139.834 25.4449 140.505 26.5242 141.849 26.9797C143.241 26.8843 144.525 26.2483 145.701 25.0723C146.876 23.897 147.752 22.5655 148.328 21.0774C148.903 19.5896 149.192 18.2704 149.192 17.1185C149.192 15.9667 148.993 14.9951 148.598 14.2032C148.201 13.4115 147.656 12.8715 146.96 12.5837C145.52 12.8236 144.243 13.5315 143.127 14.7068Z" fill="white"/>
<path d="M17.921 35.4871C27.6461 35.4871 35.5298 27.6034 35.5298 17.8783C35.5298 8.15325 27.6461 0.269531 17.921 0.269531C8.19597 0.269531 0.312256 8.15325 0.312256 17.8783C0.312256 27.6034 8.19597 35.4871 17.921 35.4871Z" fill="white"/>
<path d="M9.53789 33.077C9.4522 32.672 9.36979 32.2848 9.28104 31.8669C9.11786 32.0707 8.97277 32.2522 8.8164 32.447C8.7739 32.1094 8.73352 31.7866 8.69314 31.4638C8.68445 31.4607 8.676 31.4584 8.66731 31.4551C8.49216 31.7136 8.31725 31.9711 8.13365 32.2423C8.12473 32.1129 8.0658 32.0303 7.96484 31.9772C7.862 31.9232 7.7702 31.9366 7.66713 32.0223C7.66713 31.7584 7.66103 31.4983 7.66854 31.2384C7.68239 30.7521 7.70047 30.2659 7.72395 29.7799C7.75095 29.2174 7.78429 28.6548 7.8181 28.0925C7.84393 27.6607 7.87234 27.2292 7.90521 26.7979C7.93948 26.3502 7.97893 25.9027 8.0179 25.4552C8.05218 25.0612 8.08716 24.6675 8.12543 24.274C8.16816 23.8338 8.21301 23.394 8.25973 22.9543C8.30716 22.5079 8.35599 22.0619 8.40788 21.616C8.46164 21.1572 8.5187 20.6985 8.57622 20.2402C8.6328 19.7915 8.69173 19.3435 8.75019 18.8953C8.81452 18.4037 8.87885 17.9125 8.94459 17.4216C9.00493 16.9739 9.06316 16.5252 9.13007 16.0784C9.22868 15.4231 9.32612 14.7674 9.43858 14.1149C9.5825 13.2802 9.76234 12.4531 9.99713 11.6386C10.3704 10.3426 10.8884 9.11143 11.6387 7.98705C12.4253 6.80843 13.4074 5.83173 14.647 5.12856C15.4643 4.66509 16.3356 4.354 17.2649 4.20163C17.9006 4.09739 18.5388 4.06146 19.1795 4.11053C20.1067 4.18144 21.0047 4.38594 21.8666 4.74116C23.7785 5.52863 25.2775 6.80937 26.4005 8.53761C27.0997 9.61363 27.566 10.7875 27.8536 12.0357C27.9794 12.5822 28.0402 13.1368 28.098 13.6935C28.1468 14.1644 28.1907 14.6345 28.1738 15.1083C28.0975 17.2417 27.4988 19.2001 26.1817 20.9027C25.6037 21.65 24.9122 22.2889 24.0968 22.7775C23.4758 23.1496 22.8104 23.4274 22.1042 23.5891C21.6513 23.6927 21.194 23.784 20.7335 23.8427C20.3863 23.8871 20.0306 23.8866 19.6796 23.8772C19.2915 23.8676 18.9025 23.8385 18.5167 23.7948C17.6391 23.6955 16.7835 23.4933 15.9437 23.221C14.8494 22.8665 13.8077 22.395 12.8112 21.8219C12.7767 21.802 12.7413 21.7834 12.6882 21.7543C12.66 21.8999 12.6319 22.0349 12.6077 22.1708C12.4609 23.0012 12.31 23.8307 12.1703 24.6621C12.0402 25.4343 11.9188 26.2079 11.8003 26.982C11.7033 27.6135 11.6115 28.2465 11.5258 28.8802C11.4624 29.3481 11.4157 29.8179 11.3558 30.2866C11.2997 30.7247 11.2441 31.163 11.1703 31.5985C11.1509 31.7136 11.0809 31.831 11.0051 31.9237C10.8259 32.1425 10.5153 32.078 10.4122 31.8112C10.4057 31.7934 10.3972 31.7758 10.3822 31.7417C10.2732 32.2991 10.0417 32.7617 9.53789 33.077ZM23.3681 14.7838C23.3681 14.65 23.3798 14.5147 23.3662 14.3816C23.2983 13.7087 23.1424 13.0556 22.8879 12.4282C22.4393 11.3221 21.7687 10.3847 20.7807 9.69463C20.1893 9.28141 19.5369 9.02244 18.814 8.97549C18.0948 8.92876 17.432 9.12129 16.8312 9.51455C16.1208 9.97942 15.6106 10.6258 15.1999 11.3581C14.7041 12.2418 14.3751 13.1906 14.1615 14.1755C13.8896 15.4309 13.6504 16.6933 13.3959 17.9522C13.3827 18.0158 13.4013 18.0503 13.4616 18.0757C13.6311 18.1478 13.7971 18.2281 13.9666 18.2997C15.4674 18.9352 17.0101 19.4081 18.6477 19.5173C19.3077 19.5609 19.9602 19.5182 20.6054 19.3705C21.6933 19.1214 22.4299 18.4617 22.8452 17.4373C23.1894 16.5872 23.3591 15.6995 23.3681 14.7838Z" fill="#2E608D"/>
</svg>
