<svg width="151" height="38" viewBox="0 0 151 38" fill="none" xmlns="http://www.w3.org/2000/svg">
<path d="M54.9692 11.3348C54.9692 15.6537 50.8664 18.6171 42.6607 20.2242C41.4368 24.7356 40.7225 27.2186 40.519 27.6744C40.315 28.1301 40.1771 28.358 40.1051 28.358C39.8893 28.358 39.6733 28.2261 39.4573 27.962C39.2413 27.6983 39.1333 27.3142 39.1333 26.8103C39.1333 26.3065 39.7991 23.5957 41.1308 18.6765C42.4625 13.758 43.2002 10.5307 43.3444 8.99496C42.9603 8.7313 42.7687 8.37138 42.7687 7.91496C42.7687 7.45971 43.4399 7.02771 44.7841 6.61942C46.1275 6.21184 47.531 6.00781 48.9949 6.00781C50.4581 6.00781 51.8201 6.50579 53.0799 7.50127C54.3398 8.49769 54.9692 9.77515 54.9692 11.3348ZM53.1698 11.5506C53.1698 10.4473 52.7498 9.57112 51.9102 8.92336C51.0702 8.27535 50.1226 7.95159 49.067 7.95159C48.0109 7.95159 46.6917 8.21572 45.1083 8.74351C45.1318 8.8393 45.144 8.9952 45.144 9.2112C45.144 10.6509 44.4835 13.7226 43.1645 18.4246C46.2355 17.7768 48.6712 16.8292 50.4705 15.5816C52.2702 14.3342 53.1698 12.9903 53.1698 11.5506Z" fill="#2E608D"/>
<path d="M68.1778 16.9491C68.1778 19.7564 67.2657 22.3601 65.4426 24.7591C63.619 27.1589 61.5074 28.3581 59.1083 28.3581C57.9321 28.3581 57.0026 27.8245 56.3189 26.7567C55.6349 25.6893 55.2933 24.3093 55.2933 22.6177C55.2933 20.9261 55.6828 19.1804 56.4628 17.3808C57.242 15.5814 58.322 14.0821 59.7021 12.8821C61.0812 11.6829 62.551 11.0825 64.1106 11.0825C65.3346 11.0825 66.3178 11.6648 67.0619 12.8284C67.8057 13.9922 68.1778 15.3654 68.1778 16.9491ZM60.3499 14.5735C59.2342 15.7498 58.4063 17.1233 57.8666 18.6947C57.3266 20.2663 57.0568 21.9042 57.0568 23.6075C57.0568 25.3116 57.728 26.3909 59.0722 26.8464C60.4637 26.751 61.7475 26.115 62.9231 24.939C64.0987 23.7637 64.9746 22.4322 65.5503 20.9441C66.1263 19.4563 66.4141 18.1371 66.4141 16.9852C66.4141 15.8334 66.2164 14.8618 65.8203 14.0699C65.4245 13.2782 64.8786 12.7382 64.1827 12.4504C62.7435 12.6903 61.4656 13.3982 60.3499 14.5735Z" fill="#2E608D"/>
<path d="M91.8238 11.0825C92.4232 11.0825 92.981 11.4786 93.4971 12.2703C94.0129 13.0622 94.2711 14.184 94.2711 15.6354C94.2711 17.0876 94.0312 18.8205 93.5513 20.8359C93.0709 22.8515 92.4952 24.6091 91.824 26.1089C91.1518 27.6087 90.5641 28.3581 90.0603 28.3581C89.7238 28.3581 89.5564 28.1546 89.5564 27.7463C89.5564 27.3387 89.8084 26.5348 90.3122 25.3351C91.824 21.7356 92.5795 18.5092 92.5795 15.6535C92.5795 13.9023 92.2316 13.0261 91.5361 13.0261C91.0802 13.0261 90.6304 13.2484 90.1864 13.6924C89.7422 14.1364 89.3822 14.5198 89.1066 14.8438C88.8303 15.1678 88.4767 15.6354 88.0452 16.2475C87.6131 16.8591 87.2408 17.3991 86.9292 17.8668C86.6172 18.3348 86.1735 19.0067 85.5975 19.8827C85.0218 20.7584 84.5837 21.4182 84.2839 21.8619C83.9836 22.3064 83.546 23.08 82.9701 24.1837C81.5064 26.9673 80.6067 28.3584 80.2708 28.3584C80.1268 28.3584 79.9766 28.2628 79.8209 28.0703C79.6645 27.8785 79.5871 27.6512 79.5871 27.3866C79.5871 27.1227 79.8866 26.3249 80.4868 24.9932C81.0862 23.6615 81.6802 22.0777 82.2683 20.2426C82.8562 18.4071 83.1501 16.6974 83.1501 15.1138C83.1501 14.5381 82.964 14.0464 82.5923 13.6384C82.2199 13.2306 81.9086 13.0263 81.6567 13.0263C81.4048 13.0263 81.1824 13.0688 80.9906 13.1524C80.7985 13.2367 80.5887 13.3747 80.3609 13.5665C80.1325 13.7586 79.9165 13.9567 79.7129 14.1603C79.5089 14.3643 79.257 14.6524 78.9571 15.0241C78.6569 15.3962 78.3932 15.7383 78.1655 16.0496C77.937 16.3619 77.6372 16.7875 77.2655 17.3275C76.8932 17.8671 76.5757 18.3296 76.3118 18.7128C75.4239 20.0569 74.6799 21.1726 74.0802 22.0601C73.4801 22.9478 72.8441 23.944 72.1726 25.0475C70.8287 27.2551 70.1089 28.3586 70.0133 28.3586C69.7734 28.3586 69.5275 28.1968 69.2754 27.8726C69.0235 27.5491 68.9572 27.1711 69.0774 26.7391C69.1972 26.3073 69.4611 25.3475 69.8691 23.8597C70.277 22.3723 70.6791 20.939 71.075 19.5589C71.4711 18.1793 71.7284 16.6861 71.8488 15.0781C71.9686 13.4707 72.0345 12.4029 72.0468 11.8749C72.0587 11.3476 72.2027 11.083 72.4788 11.083C72.7544 11.083 73.0305 11.2755 73.3064 11.6589C73.582 12.043 73.7205 12.6488 73.7205 13.4761C73.7205 14.3042 73.4686 15.8101 72.9645 17.9931C72.4607 20.1769 71.8129 22.3721 71.0212 24.5795C74.068 19.3248 76.3595 15.7618 77.8952 13.8903C79.4305 12.0188 80.7504 11.083 81.8541 11.083C82.4059 11.083 83.0419 11.5274 83.7618 12.4149C84.4814 13.3026 84.8415 14.2864 84.8415 15.3659C84.8415 16.4459 84.5534 17.9697 83.9778 19.9367C85.9448 16.506 87.5044 14.1727 88.6565 12.9366C89.8081 11.7005 90.8635 11.0825 91.8238 11.0825Z" fill="#2E608D"/>
<path d="M110.718 16.9491C110.718 19.7564 109.806 22.3601 107.983 24.7591C106.159 27.1589 104.048 28.3581 101.649 28.3581C100.473 28.3581 99.5434 27.8245 98.8595 26.7567C98.1756 25.6893 97.834 24.3093 97.834 22.6177C97.834 20.9261 98.2235 19.1804 99.0034 17.3808C99.7829 15.5814 100.862 14.0821 102.243 12.8821C103.622 11.6829 105.091 11.0825 106.652 11.0825C107.875 11.0825 108.859 11.6648 109.603 12.8284C110.346 13.9922 110.718 15.3654 110.718 16.9491ZM102.89 14.5735C101.775 15.7498 100.947 17.1233 100.407 18.6947C99.8672 20.2663 99.5974 21.9042 99.5974 23.6075C99.5974 25.3116 100.268 26.3909 101.613 26.8464C103.004 26.751 104.288 26.115 105.464 24.939C106.639 23.7637 107.515 22.4322 108.091 20.9441C108.667 19.4563 108.955 18.1371 108.955 16.9852C108.955 15.8334 108.757 14.8618 108.361 14.0699C107.965 13.2782 107.419 12.7382 106.723 12.4504C105.283 12.6903 104.006 13.3982 102.89 14.5735Z" fill="#2E608D"/>
<path d="M111.905 37.5353C111.666 37.5353 111.438 37.3916 111.222 37.1035C111.006 36.8154 110.898 36.4917 110.898 36.1315C110.898 35.7721 111.245 34.284 111.941 31.669C114.149 23.3673 115.456 16.8288 115.864 12.054C115.913 11.4781 116.032 11.1665 116.224 11.1184C116.272 11.0944 116.344 11.0822 116.441 11.0822C116.728 11.0822 117.022 11.3043 117.322 11.7481C117.622 12.1925 117.79 12.636 117.826 13.0798C117.862 13.5242 117.568 15.0538 116.944 17.6686C118.143 15.4856 119.415 13.8057 120.759 12.6299C122.103 11.4546 123.374 10.8662 124.574 10.8662C125.774 10.8662 126.649 11.4189 127.201 12.5221C127.753 13.6259 128.029 15.0475 128.029 16.7868C128.029 18.5265 127.357 20.3381 126.013 22.2215C124.669 24.105 123.104 25.5989 121.317 26.7024C119.529 27.8063 117.939 28.3578 116.548 28.3578C115.636 28.3578 114.964 28.1777 114.532 27.8178C114.197 29.2575 113.878 30.673 113.578 32.0648C113.278 33.4562 113.033 34.4998 112.84 35.1961C112.458 36.7556 112.145 37.5353 111.905 37.5353ZM114.857 26.3784C115.264 26.4988 115.829 26.5587 116.548 26.5587C117.269 26.5587 118.192 26.3009 119.32 25.7846C120.448 25.2692 121.515 24.5914 122.523 23.7514C123.531 22.9118 124.382 21.8501 125.079 20.5665C125.774 19.283 126.122 17.9567 126.122 16.5895C126.122 13.9982 125.57 12.7022 124.466 12.7022C123.363 12.7022 121.905 13.7043 120.094 15.7075C118.282 17.7111 116.873 19.8889 115.865 22.2396C115.793 22.5998 115.636 23.2421 115.397 24.1651C115.157 25.0889 114.977 25.8266 114.857 26.3784Z" fill="#2E608D"/>
<path d="M130.512 14.9334L130.477 12.4501C130.477 11.7544 130.512 11.3586 130.584 11.2626C130.657 11.1668 130.801 11.1126 131.016 11.1006C131.232 11.0888 131.484 11.2929 131.773 11.7124C132.06 12.1325 132.217 12.6065 132.24 13.134C132.312 14.4538 132.084 16.5415 131.557 19.3962C132.612 16.9256 133.56 15.1018 134.4 13.926C135.239 12.7504 136.169 11.9463 137.189 11.5145C138.208 11.0825 139.03 11.0348 139.654 11.3706C140.11 11.6108 140.05 11.9106 139.474 12.2703C139.306 12.3665 139.054 12.4745 138.718 12.5943C138.382 12.7147 138.028 12.8946 137.657 13.1343C137.284 13.3745 136.967 13.5841 136.703 13.7642C136.439 13.9443 136.145 14.2446 135.821 14.6639C135.497 15.0839 135.257 15.3835 135.101 15.5636C134.945 15.7437 134.705 16.1278 134.382 16.7154C134.058 17.3036 133.86 17.6813 133.788 17.8492C132.348 20.4884 131.382 22.6301 130.891 24.2731C130.399 25.9171 130.057 27.0328 129.865 27.6202C129.672 28.2088 129.421 28.5145 129.109 28.5384C128.869 28.5624 128.647 28.3645 128.443 27.9444C128.239 27.5249 128.221 27.0626 128.389 26.559C129.757 22.4319 130.464 18.5566 130.512 14.9334Z" fill="#2E608D"/>
<path d="M150.955 16.9491C150.955 19.7564 150.043 22.3601 148.22 24.7591C146.396 27.1589 144.285 28.3581 141.886 28.3581C140.71 28.3581 139.78 27.8245 139.097 26.7567C138.412 25.6893 138.07 24.3093 138.07 22.6177C138.07 20.9261 138.461 19.1804 139.24 17.3808C140.02 15.5814 141.099 14.0821 142.48 12.8821C143.859 11.6829 145.328 11.0825 146.888 11.0825C148.112 11.0825 149.095 11.6648 149.84 12.8284C150.583 13.9922 150.955 15.3654 150.955 16.9491ZM143.127 14.5735C142.011 15.7498 141.184 17.1233 140.644 18.6947C140.104 20.2663 139.834 21.9042 139.834 23.6075C139.834 25.3116 140.505 26.3909 141.849 26.8464C143.241 26.751 144.525 26.115 145.701 24.939C146.876 23.7637 147.752 22.4322 148.328 20.9441C148.903 19.4563 149.192 18.1371 149.192 16.9852C149.192 15.8334 148.993 14.8618 148.598 14.0699C148.201 13.2782 147.656 12.7382 146.96 12.4504C145.52 12.6903 144.243 13.3982 143.127 14.5735Z" fill="#2E608D"/>
<path d="M17.921 35.3538C27.6461 35.3538 35.5298 27.4701 35.5298 17.745C35.5298 8.01995 27.6461 0.13623 17.921 0.13623C8.19597 0.13623 0.312256 8.01995 0.312256 17.745C0.312256 27.4701 8.19597 35.3538 17.921 35.3538Z" fill="#2E608D"/>
<path d="M9.53789 32.9437C9.4522 32.5387 9.36979 32.1515 9.28104 31.7336C9.11786 31.9374 8.97277 32.1189 8.8164 32.3137C8.7739 31.9761 8.73352 31.6533 8.69314 31.3305C8.68445 31.3274 8.676 31.3251 8.66731 31.3218C8.49216 31.5803 8.31725 31.8378 8.13365 32.109C8.12473 31.9796 8.0658 31.897 7.96484 31.8439C7.862 31.7899 7.7702 31.8033 7.66713 31.889C7.66713 31.6251 7.66103 31.365 7.66854 31.1051C7.68239 30.6188 7.70047 30.1326 7.72395 29.6466C7.75095 29.0841 7.78429 28.5215 7.8181 27.9592C7.84393 27.5274 7.87234 27.0959 7.90521 26.6646C7.93948 26.2169 7.97893 25.7694 8.0179 25.3219C8.05218 24.9279 8.08716 24.5342 8.12543 24.1407C8.16816 23.7005 8.21301 23.2607 8.25973 22.821C8.30716 22.3746 8.35599 21.9286 8.40788 21.4827C8.46164 21.0239 8.5187 20.5652 8.57622 20.1069C8.6328 19.6582 8.69173 19.2102 8.75019 18.762C8.81452 18.2704 8.87885 17.7792 8.94459 17.2883C9.00493 16.8406 9.06316 16.3919 9.13007 15.9451C9.22868 15.2898 9.32612 14.6341 9.43858 13.9816C9.5825 13.1469 9.76234 12.3198 9.99713 11.5053C10.3704 10.2093 10.8884 8.97812 11.6387 7.85375C12.4253 6.67513 13.4074 5.69843 14.647 4.99525C15.4643 4.53179 16.3356 4.2207 17.2649 4.06833C17.9006 3.96409 18.5388 3.92816 19.1795 3.97723C20.1067 4.04814 21.0047 4.25263 21.8666 4.60786C23.7785 5.39533 25.2775 6.67607 26.4005 8.40431C27.0997 9.48033 27.566 10.6542 27.8536 11.9024C27.9794 12.4489 28.0402 13.0035 28.098 13.5602C28.1468 14.0311 28.1907 14.5012 28.1738 14.975C28.0975 17.1084 27.4988 19.0668 26.1817 20.7694C25.6037 21.5167 24.9122 22.1556 24.0968 22.6442C23.4758 23.0163 22.8104 23.2941 22.1042 23.4558C21.6513 23.5594 21.194 23.6507 20.7335 23.7094C20.3863 23.7538 20.0306 23.7533 19.6796 23.7439C19.2915 23.7343 18.9025 23.7052 18.5167 23.6615C17.6391 23.5622 16.7835 23.36 15.9437 23.0877C14.8494 22.7332 13.8077 22.2617 12.8112 21.6886C12.7767 21.6687 12.7413 21.6501 12.6882 21.621C12.66 21.7666 12.6319 21.9016 12.6077 22.0375C12.4609 22.8679 12.31 23.6974 12.1703 24.5288C12.0402 25.301 11.9188 26.0746 11.8003 26.8487C11.7033 27.4802 11.6115 28.1132 11.5258 28.7469C11.4624 29.2148 11.4157 29.6846 11.3558 30.1533C11.2997 30.5914 11.2441 31.0297 11.1703 31.4652C11.1509 31.5803 11.0809 31.6977 11.0051 31.7904C10.8259 32.0092 10.5153 31.9447 10.4122 31.6779C10.4057 31.6601 10.3972 31.6425 10.3822 31.6084C10.2732 32.1658 10.0417 32.6284 9.53789 32.9437ZM23.3681 14.6505C23.3681 14.5167 23.3798 14.3814 23.3662 14.2483C23.2983 13.5754 23.1424 12.9223 22.8879 12.2949C22.4393 11.1888 21.7687 10.2514 20.7807 9.56133C20.1893 9.14811 19.5369 8.88914 18.814 8.84219C18.0948 8.79546 17.432 8.98799 16.8312 9.38125C16.1208 9.84612 15.6106 10.4925 15.1999 11.2248C14.7041 12.1085 14.3751 13.0573 14.1615 14.0422C13.8896 15.2976 13.6504 16.56 13.3959 17.8189C13.3827 17.8825 13.4013 17.917 13.4616 17.9424C13.6311 18.0145 13.7971 18.0948 13.9666 18.1664C15.4674 18.8019 17.0101 19.2748 18.6477 19.384C19.3077 19.4276 19.9602 19.3849 20.6054 19.2372C21.6933 18.9881 22.4299 18.3284 22.8452 17.304C23.1894 16.4539 23.3591 15.5662 23.3681 14.6505Z" fill="white"/>
</svg>
