<svg width="30" height="30" viewBox="0 0 30 30" fill="none" xmlns="http://www.w3.org/2000/svg">
<path d="M15.1748 29.1143C23.1398 29.1143 29.5967 22.6574 29.5967 14.6924C29.5967 6.72742 23.1398 0.270508 15.1748 0.270508C7.20984 0.270508 0.75293 6.72742 0.75293 14.6924C0.75293 22.6574 7.20984 29.1143 15.1748 29.1143Z" fill="white"/>
<path d="M8.30754 27.1412C8.23735 26.8095 8.16986 26.4924 8.09717 26.1501C7.96353 26.317 7.84469 26.4657 7.71662 26.6253C7.68182 26.3488 7.64874 26.0844 7.61567 25.82C7.60855 25.8175 7.60163 25.8155 7.59452 25.8128C7.45107 26.0246 7.30781 26.2355 7.15744 26.4576C7.15013 26.3516 7.10187 26.284 7.01918 26.2405C6.93496 26.1963 6.85977 26.2072 6.77535 26.2774C6.77535 26.0613 6.77035 25.8482 6.77651 25.6354C6.78785 25.2371 6.80266 24.8389 6.82189 24.4408C6.844 23.9801 6.87131 23.5194 6.899 23.0588C6.92015 22.7052 6.94342 22.3518 6.97034 21.9985C6.99841 21.6318 7.03072 21.2653 7.06264 20.8988C7.09071 20.5762 7.11936 20.2537 7.15071 19.9314C7.1857 19.5709 7.22243 19.2107 7.2607 18.8505C7.29954 18.485 7.33954 18.1196 7.38204 17.7545C7.42607 17.3787 7.4728 17.003 7.51991 16.6276C7.56625 16.2602 7.61452 15.8933 7.6624 15.5262C7.71509 15.1235 7.76777 14.7212 7.82162 14.3192C7.87103 13.9525 7.91872 13.585 7.97353 13.2191C8.05429 12.6824 8.13409 12.1453 8.2262 11.6109C8.34407 10.9273 8.49137 10.2499 8.68366 9.58281C8.9894 8.52136 9.4136 7.51298 10.0282 6.59209C10.6723 5.62679 11.4767 4.82685 12.492 4.25094C13.1614 3.87135 13.875 3.61657 14.6361 3.49177C15.1568 3.40639 15.6794 3.37697 16.2042 3.41716C16.9636 3.47523 17.6991 3.64272 18.405 3.93366C19.9708 4.5786 21.1986 5.62756 22.1183 7.04302C22.691 7.92429 23.0729 8.88576 23.3084 9.90798C23.4115 10.3556 23.4613 10.8098 23.5086 11.2658C23.5486 11.6515 23.5846 12.0365 23.5707 12.4245C23.5082 14.1719 23.0179 15.7758 21.9391 17.1703C21.4657 17.7823 20.8994 18.3056 20.2316 18.7057C19.723 19.0105 19.178 19.238 18.5996 19.3705C18.2287 19.4553 17.8541 19.5301 17.477 19.5782C17.1926 19.6145 16.9013 19.6141 16.6138 19.6064C16.2959 19.5985 15.9773 19.5747 15.6614 19.5389C14.9426 19.4576 14.2419 19.292 13.554 19.069C12.6578 18.7786 11.8046 18.3925 10.9885 17.9231C10.9602 17.9068 10.9312 17.8916 10.8877 17.8677C10.8646 17.9869 10.8416 18.0975 10.8218 18.2088C10.7016 18.889 10.5779 19.5684 10.4635 20.2493C10.357 20.8817 10.2576 21.5153 10.1605 22.1493C10.081 22.6666 10.0059 23.185 9.93567 23.704C9.88376 24.0872 9.84549 24.472 9.79645 24.8558C9.7505 25.2146 9.70492 25.5736 9.64454 25.9303C9.62858 26.0246 9.57128 26.1207 9.50917 26.1967C9.36245 26.3759 9.10805 26.323 9.02363 26.1046C9.01825 26.0899 9.01133 26.0755 8.99902 26.0476C8.9098 26.5041 8.7202 26.883 8.30754 27.1412ZM19.6347 12.1588C19.6347 12.0492 19.6443 11.9384 19.6332 11.8294C19.5776 11.2783 19.4499 10.7433 19.2415 10.2295C18.874 9.3236 18.3248 8.55578 17.5156 7.99064C17.0313 7.6522 16.4969 7.4401 15.9048 7.40164C15.3158 7.36338 14.773 7.52106 14.2809 7.84315C13.699 8.22389 13.2812 8.75327 12.9449 9.35302C12.5387 10.0768 12.2693 10.8539 12.0943 11.6605C11.8717 12.6887 11.6757 13.7227 11.4673 14.7537C11.4565 14.8059 11.4717 14.8341 11.5211 14.8549C11.66 14.9139 11.7959 14.9797 11.9347 15.0383C13.1639 15.5589 14.4274 15.9461 15.7687 16.0356C16.3092 16.0713 16.8436 16.0363 17.372 15.9154C18.2631 15.7114 18.8663 15.171 19.2065 14.332C19.4884 13.6358 19.6274 12.9087 19.6347 12.1588Z" fill="#2E608D"/>
</svg>
