<svg width="30" height="31" viewBox="0 0 30 31" fill="none" xmlns="http://www.w3.org/2000/svg">
<g clip-path="url(#clip0)">
<path d="M26.5772 14.7441C26.4888 13.6448 26.2468 12.5753 25.8544 11.5503L28.558 9.38494L24.1647 3.89928L21.4775 6.05113C20.5498 5.42617 19.5465 4.94359 18.4823 4.6109V1.19629H11.4539V4.63317C10.3411 4.9893 9.29678 5.50996 8.33508 6.1876L5.61979 4.07734L1.3067 9.62682L4.07004 11.774C3.70107 12.8013 3.48141 13.8696 3.41408 14.9649L0 15.7819L1.63529 22.617L4.03723 22.0424C5.22041 20.8592 6.28857 19.7911 7.69313 18.3865C5.82627 13.3199 9.57932 7.90369 15.005 7.90369C19.3069 7.90369 22.7947 11.3915 22.7947 15.6934C22.7947 21.0068 17.581 24.7584 12.5538 23.089C12.1523 23.4906 7.99207 27.6508 7.34578 28.2971L11.9804 30.4817L13.522 27.2112C14.5868 27.3483 15.6492 27.3371 16.6935 27.1849L18.2726 30.412L24.5858 27.3231L23.0109 24.1041C23.7911 23.362 24.4599 22.5215 25.0063 21.5944L28.4649 22.3687L30 15.5102L26.5772 14.7441Z" fill="#33393D"/>
<path d="M19.9975 13.6745L19.5043 12.434L16.5366 15.4012L15.2036 14.0681L18.1713 11.101L16.9308 10.6072C12.0753 8.67589 7.58643 13.988 10.1344 18.4298C3.57979 24.9844 9.18141 19.3834 1.30676 27.258L3.60329 29.5545C8.17776 24.9801 3.73442 29.424 12.5129 20.6455C16.9941 22.8187 21.846 18.3183 19.9975 13.6745Z" fill="#33393D"/>
</g>
<defs>
<clipPath id="clip0">
<rect width="30" height="30" fill="white" transform="translate(0 0.838867)"/>
</clipPath>
</defs>
</svg>
