<svg width="19" height="19" viewBox="0 0 19 19" fill="none" xmlns="http://www.w3.org/2000/svg">
<path d="M9.5 0C4.26138 0 0 4.26138 0 9.5C0 14.7386 4.26138 19 9.5 19C14.7386 19 19 14.7379 19 9.5C19 4.26212 14.7386 0 9.5 0ZM9.5 17.5283C5.07378 17.5283 1.47172 13.927 1.47172 9.5C1.47172 5.07304 5.07378 1.47172 9.5 1.47172C13.9262 1.47172 17.5283 5.07304 17.5283 9.5C17.5283 13.927 13.927 17.5283 9.5 17.5283Z" fill="#2AABE4"/>
<path d="M13.1793 8.69788H10.2359V5.75443C10.2359 5.34823 9.90695 5.01855 9.50001 5.01855C9.09306 5.01855 8.76413 5.34823 8.76413 5.75443V8.69788H5.82069C5.41375 8.69788 5.08481 9.02756 5.08481 9.43376C5.08481 9.83995 5.41375 10.1696 5.82069 10.1696H8.76413V13.1131C8.76413 13.5193 9.09306 13.849 9.50001 13.849C9.90695 13.849 10.2359 13.5193 10.2359 13.1131V10.1696H13.1793C13.5863 10.1696 13.9152 9.83995 13.9152 9.43376C13.9152 9.02756 13.5863 8.69788 13.1793 8.69788Z" fill="#2AABE4"/>
</svg>
