<svg width="24" height="23" viewBox="0 0 24 23" fill="none" xmlns="http://www.w3.org/2000/svg">
<path d="M12 0C5.3828 0 0 5.15851 0 11.5C0 17.8415 5.3828 23 12 23C18.6172 23 24 17.8406 24 11.5C24 5.15941 18.6172 0 12 0ZM12 21.2184C6.40898 21.2184 1.85902 16.859 1.85902 11.5C1.85902 6.14105 6.40898 1.78156 12 1.78156C17.591 1.78156 22.141 6.14105 22.141 11.5C22.141 16.859 17.592 21.2184 12 21.2184Z" fill="#2F2E41"/>
<path d="M16.6475 10.5291H12.9295V6.966C12.9295 6.47428 12.514 6.0752 11.9999 6.0752C11.4859 6.0752 11.0704 6.47428 11.0704 6.966V10.5291H7.35238C6.83835 10.5291 6.42285 10.9282 6.42285 11.4199C6.42285 11.9116 6.83835 12.3107 7.35238 12.3107H11.0704V15.8738C11.0704 16.3655 11.4859 16.7646 11.9999 16.7646C12.514 16.7646 12.9295 16.3655 12.9295 15.8738V12.3107H16.6475C17.1615 12.3107 17.577 11.9116 17.577 11.4199C17.577 10.9282 17.1615 10.5291 16.6475 10.5291Z" fill="#2F2E41"/>
</svg>
