<svg width="33" height="33" viewBox="0 0 33 33" fill="none" xmlns="http://www.w3.org/2000/svg">
<path d="M30.1651 11.6595C28.0171 7.12765 21.8011 2.50684 16.3858 2.50684C14.5763 2.50684 12.7844 2.86325 11.1127 3.55573C9.44087 4.2482 7.92185 5.26318 6.64232 6.54271C5.36279 7.82224 4.34781 9.34126 3.65533 11.013C2.96286 12.6848 2.60645 14.4766 2.60645 16.2862C2.60645 18.0957 2.96286 19.8875 3.65533 21.5593C4.34781 23.2311 5.36279 24.7501 6.64232 26.0296C7.92185 27.3092 9.44087 28.3241 11.1127 29.0166C12.7844 29.7091 14.5763 30.0655 16.3858 30.0655C20.0403 30.0655 23.5451 28.6138 26.1292 26.0296C28.7134 23.4455 30.1651 19.9407 30.1651 16.2862M30.1651 2.50684V11.6931H20.9789" stroke="white" stroke-width="3"/>
</svg>
