<svg width="19" height="18" viewBox="0 0 19 18" fill="none" xmlns="http://www.w3.org/2000/svg">
<g clip-path="url(#clip0)">
<path d="M9.89099 18H8.76132C7.84764 18 7.10426 17.2567 7.10426 16.343V15.9608C6.71582 15.8367 6.33842 15.68 5.97585 15.4924L5.70501 15.7633C5.04903 16.42 3.99824 16.4008 3.36132 15.763L2.56288 14.9646C1.92483 14.3273 1.90648 13.2768 2.56309 12.6209L2.83373 12.3503C2.6461 11.9877 2.48948 11.6104 2.36534 11.2219H1.98319C1.06955 11.2219 0.326172 10.4785 0.326172 9.56485V8.43514C0.326172 7.52147 1.06955 6.77813 1.98323 6.77813H2.36538C2.48951 6.38965 2.64613 6.01228 2.83376 5.64971L2.56292 5.37891C1.90669 4.72338 1.9248 3.67284 2.56313 3.03521L3.36163 2.23675C4.00004 1.59746 5.05057 1.5815 5.70529 2.23696L5.97589 2.50755C6.33845 2.31996 6.71586 2.1633 7.1043 2.03917V1.65702C7.1043 0.743344 7.84764 0 8.76135 0H9.89103C10.8047 0 11.548 0.743344 11.548 1.65702V2.0392C11.9365 2.1633 12.3139 2.31996 12.6765 2.50759L12.9473 2.23675C13.6033 1.57996 14.6541 1.59922 15.291 2.23699L16.0894 3.03539C16.7275 3.67274 16.7458 4.72317 16.0892 5.37908L15.8186 5.64971C16.0062 6.01228 16.1628 6.38961 16.287 6.77813H16.6691C17.5828 6.77813 18.3262 7.52147 18.3262 8.43514V9.56485C18.3262 10.4785 17.5828 11.2219 16.6691 11.2219H16.287C16.1628 11.6104 16.0062 11.9877 15.8186 12.3503L16.0894 12.6211C16.7457 13.2767 16.7275 14.3272 16.0892 14.9648L15.2907 15.7633C14.6523 16.4026 13.6018 16.4185 12.9471 15.7631L12.6765 15.4925C12.3139 15.6801 11.9365 15.8367 11.548 15.9609V16.3431C11.548 17.2567 10.8047 18 9.89099 18V18ZM6.15216 14.3849C6.65584 14.6828 7.19795 14.9078 7.76341 15.0537C7.99628 15.1138 8.15898 15.3238 8.15898 15.5643V16.343C8.15898 16.6751 8.42923 16.9453 8.76135 16.9453H9.89103C10.2231 16.9453 10.4934 16.6751 10.4934 16.343V15.5643C10.4934 15.3238 10.6561 15.1138 10.889 15.0537C11.4544 14.9078 11.9965 14.6828 12.5002 14.3849C12.7075 14.2623 12.9713 14.2957 13.1416 14.4659L13.6931 15.0175C13.9309 15.2556 14.3128 15.25 14.5447 15.0177L15.3437 14.2188C15.5751 13.9877 15.5829 13.6057 15.3439 13.3671L14.7922 12.8153C14.6219 12.6451 14.5886 12.3812 14.7111 12.174C15.009 11.6704 15.234 11.1283 15.3799 10.5628C15.4401 10.3299 15.6501 10.1672 15.8905 10.1672H16.6692C17.0013 10.1672 17.2715 9.89701 17.2715 9.56489V8.43518C17.2715 8.10306 17.0013 7.83285 16.6692 7.83285H15.8905C15.65 7.83285 15.4401 7.67014 15.3799 7.4373C15.234 6.87182 15.009 6.32971 14.7111 5.82606C14.5886 5.61885 14.6219 5.35497 14.7922 5.18474L15.3437 4.63317C15.5822 4.39502 15.5759 4.01323 15.3439 3.78151L14.545 2.98259C14.3134 2.7507 13.9315 2.74391 13.6934 2.98238L13.1416 3.53415C12.9714 3.70441 12.7074 3.73774 12.5003 3.61519C11.9966 3.31731 11.4545 3.09227 10.889 2.94634C10.6561 2.88626 10.4934 2.67623 10.4934 2.43573V1.65702C10.4934 1.3249 10.2232 1.05469 9.89106 1.05469H8.76139C8.42927 1.05469 8.15902 1.3249 8.15902 1.65702V2.43566C8.15902 2.67616 7.99632 2.88619 7.76344 2.94627C7.19799 3.0922 6.65588 3.31724 6.1522 3.61512C5.94491 3.73764 5.68107 3.70431 5.51084 3.53408L4.95931 2.98252C4.72151 2.74444 4.33961 2.74996 4.10768 2.98227L3.30869 3.78123C3.07729 4.01235 3.06955 4.39425 3.30848 4.63289L3.86025 5.18467C4.03048 5.35489 4.06381 5.61878 3.94129 5.82599C3.64341 6.32964 3.41841 6.87175 3.27248 7.43723C3.21236 7.67011 3.00234 7.83278 2.76187 7.83278H1.98323C1.65111 7.83281 1.38086 8.10302 1.38086 8.43514V9.56485C1.38086 9.89698 1.65111 10.1672 1.98323 10.1672H2.76183C3.00234 10.1672 3.21232 10.3299 3.27244 10.5627C3.41838 11.1282 3.64341 11.6703 3.94125 12.174C4.06377 12.3812 4.03045 12.6451 3.86022 12.8153L3.30865 13.3669C3.07022 13.605 3.07645 13.9868 3.30844 14.2185L4.10737 15.0174C4.33894 15.2493 4.72088 15.2561 4.95903 15.0177L5.51077 14.4659C5.63621 14.3405 5.89717 14.2341 6.15216 14.3849V14.3849Z" fill="#F4F0F0"/>
<path d="M9.32607 12.9163C7.16653 12.9163 5.40967 11.1594 5.40967 8.9999C5.40967 6.84039 7.16653 5.0835 9.32607 5.0835C11.4856 5.0835 13.2425 6.84039 13.2425 8.9999C13.2425 11.1594 11.4856 12.9163 9.32607 12.9163V12.9163ZM9.32607 6.13818C7.74809 6.13818 6.46436 7.42195 6.46436 8.9999C6.46436 10.5779 7.74812 11.8616 9.32607 11.8616C10.904 11.8616 12.1878 10.5779 12.1878 8.9999C12.1878 7.42195 10.9041 6.13818 9.32607 6.13818V6.13818Z" fill="#F4F0F0"/>
</g>
<defs>
<clipPath id="clip0">
<rect width="18" height="18" fill="white" transform="translate(0.326172)"/>
</clipPath>
</defs>
</svg>
