<svg width="18" height="18" viewBox="0 0 18 18" fill="none" xmlns="http://www.w3.org/2000/svg">
<path d="M2.81601 14.2594C2.93906 14.3438 3.41367 14.5794 3.81445 14.0731L6.52851 10.1075L9.40078 12.8778C9.55195 13.0219 9.75937 13.0993 9.97031 13.0747C10.1777 13.0536 10.3676 12.9446 10.4906 12.7723L15.2543 5.94146L15.4266 8.22662C15.4687 8.80669 16.0137 8.90162 16.1965 8.88755C16.5902 8.85591 16.8891 8.5149 16.8574 8.11763L16.5551 4.09927C16.527 3.70552 16.1824 3.40669 15.7852 3.43833L11.7668 3.74068C11.373 3.7688 11.0742 4.11333 11.1059 4.5106C11.134 4.90435 11.475 5.19966 11.8758 5.17154L14.1609 4.99927L9.79453 11.2571L6.91523 8.47974C6.76406 8.33208 6.55312 8.25826 6.3457 8.28287C6.13476 8.30396 5.94492 8.41646 5.82539 8.59224L2.62968 13.261C2.40468 13.5879 2.48906 14.0344 2.81601 14.2594V14.2594Z" fill="#F4F0F0"/>
<path d="M16.8961 16.1789H1.82109V1.10391C1.82109 0.706641 1.50117 0.386719 1.10391 0.386719C0.706641 0.386719 0.386719 0.706641 0.386719 1.10391V16.8961C0.386719 17.2934 0.706641 17.6133 1.10391 17.6133H16.8961C17.2934 17.6133 17.6133 17.2934 17.6133 16.8961C17.6133 16.4988 17.2934 16.1789 16.8961 16.1789Z" fill="#F4F0F0"/>
</svg>
