<svg width="33" height="33" viewBox="0 0 33 33" fill="none" xmlns="http://www.w3.org/2000/svg">
<path d="M2.08423 6.45571C2.08423 5.15212 2.60208 3.90193 3.52385 2.98015C4.44563 2.05838 5.69582 1.54053 6.99941 1.54053H26.6601C27.9637 1.54053 29.2139 2.05838 30.1357 2.98015C31.0575 3.90193 31.5753 5.15212 31.5753 6.45571V26.1164C31.5753 27.42 31.0575 28.6702 30.1357 29.592C29.2139 30.5138 27.9637 31.0316 26.6601 31.0316H6.99941C5.69582 31.0316 4.44563 30.5138 3.52385 29.592C2.60208 28.6702 2.08423 27.42 2.08423 26.1164V6.45571ZM6.99941 4.81731C6.56488 4.81731 6.14815 4.98993 5.84089 5.29719C5.53363 5.60445 5.36102 6.02118 5.36102 6.45571V26.1164C5.36102 26.551 5.53363 26.9677 5.84089 27.275C6.14815 27.5822 6.56488 27.7548 6.99941 27.7548H26.6601C27.0947 27.7548 27.5114 27.5822 27.8187 27.275C28.1259 26.9677 28.2985 26.551 28.2985 26.1164V6.45571C28.2985 6.02118 28.1259 5.60445 27.8187 5.29719C27.5114 4.98993 27.0947 4.81731 26.6601 4.81731H6.99941Z" fill="white"/>
</svg>
