<svg width="6" height="25" viewBox="0 0 6 25" fill="none" xmlns="http://www.w3.org/2000/svg">
<path d="M3.44424 6.0874C4.85565 6.0874 5.99982 4.90854 5.99982 3.45435C5.99982 2.00015 4.85565 0.821289 3.44424 0.821289C2.03284 0.821289 0.888672 2.00015 0.888672 3.45435C0.888672 4.90854 2.03284 6.0874 3.44424 6.0874Z" fill="white"/>
<path d="M3.44424 15.3032C4.85565 15.3032 5.99982 14.1244 5.99982 12.6702C5.99982 11.216 4.85565 10.0371 3.44424 10.0371C2.03284 10.0371 0.888672 11.216 0.888672 12.6702C0.888672 14.1244 2.03284 15.3032 3.44424 15.3032Z" fill="white"/>
<path d="M3.44424 24.5186C4.85565 24.5186 5.99982 23.3397 5.99982 21.8855C5.99982 20.4313 4.85565 19.2524 3.44424 19.2524C2.03284 19.2524 0.888672 20.4313 0.888672 21.8855C0.888672 23.3397 2.03284 24.5186 3.44424 24.5186Z" fill="white"/>
</svg>
