<svg width="30" height="30" viewBox="0 0 30 30" fill="none" xmlns="http://www.w3.org/2000/svg">
<g clip-path="url(#clip0)">
<path d="M15.0001 0C6.72903 0 0 6.72903 0 15.0001C0 23.2712 6.72903 30.0002 15.0001 30.0002C23.2712 30.0002 30.0002 23.2712 30.0002 15.0001C30.0002 6.72903 23.271 0 15.0001 0ZM15.0001 26.8409C8.47094 26.8409 3.15907 21.5293 3.15907 15.0001C3.15907 8.47094 8.47094 3.15907 15.0001 3.15907C21.5293 3.15907 26.8411 8.47094 26.8411 15.0001C26.8411 21.5293 21.5293 26.8409 15.0001 26.8409Z" fill="#666B6E"/>
<path d="M21.2548 15.1669H15.1054V9.84028C15.1054 8.96774 14.3984 8.26074 13.5258 8.26074C12.6533 8.26074 11.9463 8.96774 11.9463 9.84028V16.7464C11.9463 17.619 12.6533 18.326 13.5258 18.326H21.2548C22.1273 18.326 22.8343 17.619 22.8343 16.7464C22.8343 15.8739 22.1271 15.1669 21.2548 15.1669Z" fill="#666B6E"/>
</g>
<defs>
<clipPath id="clip0">
<rect width="30" height="30" fill="white"/>
</clipPath>
</defs>
</svg>
