<svg width="100" height="101" viewBox="0 0 100 101" fill="none" xmlns="http://www.w3.org/2000/svg">
<rect x="1.5" y="2.22852" width="97" height="97" rx="8.5" stroke="#49B1B6" stroke-width="3"/>
<path d="M48.9489 56.923V79.3706H23.498C23.4977 76.1608 24.1805 72.9877 25.5009 70.062C26.8214 67.1364 28.7493 64.5252 31.1565 62.402C33.5638 60.2788 36.3953 58.6921 39.463 57.7475C42.5307 56.8028 45.7642 56.5218 48.9489 56.923ZM46.121 53.9198C36.7466 53.9198 29.1538 46.327 29.1538 36.9526C29.1538 27.5782 36.7466 19.9854 46.121 19.9854C55.4954 19.9854 63.0882 27.5782 63.0882 36.9526C63.0882 46.327 55.4954 53.9198 46.121 53.9198ZM62.5029 73.4717L72.4994 63.4752L76.5008 67.4738L62.5029 81.4717L52.5035 71.4724L56.5049 67.4738L62.5 73.4717H62.5029Z" fill="#49B685"/>
</svg>
