<svg width="18" height="18" viewBox="0 0 18 18" fill="none" xmlns="http://www.w3.org/2000/svg">
<g clip-path="url(#clip0)">
<path d="M9.13183 13.8866C9.13183 14.186 8.95879 14.4581 8.688 14.5851C8.5833 14.6346 8.47111 14.6586 8.35965 14.6586C8.18314 14.6586 8.00827 14.5979 7.86703 14.4808L3.64654 10.9835H1.39871C0.972417 10.9839 0.626709 10.638 0.626709 10.2117V7.13594C0.626709 6.70947 0.972417 6.36376 1.39871 6.36376H3.64672L7.86721 2.86648C8.09781 2.67535 8.41757 2.63461 8.68818 2.76251C8.95879 2.8895 9.13201 3.16176 9.13201 3.46105L9.13183 13.8866ZM12.0987 12.6802C12.0798 12.6815 12.0618 12.6823 12.0431 12.6823C11.8392 12.6823 11.6426 12.6017 11.4973 12.4562L11.3941 12.3526C11.1233 12.0824 11.0915 11.6543 11.3195 11.3469C11.8977 10.5674 12.2028 9.64342 12.2028 8.67408C12.2028 7.63148 11.8564 6.65356 11.2008 5.84593C10.9512 5.53896 10.9742 5.09312 11.2539 4.81355L11.357 4.71032C11.5112 4.5561 11.7179 4.47205 11.9415 4.48539C12.1593 4.49635 12.3627 4.59886 12.5008 4.76769C13.4102 5.88046 13.8906 7.2315 13.8906 8.67427C13.8906 10.018 13.4658 11.297 12.6618 12.3725C12.5275 12.5518 12.3221 12.6643 12.0987 12.6802ZM15.2904 15.066C15.1508 15.231 14.9489 15.3301 14.7328 15.3392C14.7222 15.3396 14.7114 15.3399 14.7004 15.3399C14.496 15.3399 14.2997 15.2592 14.1545 15.1139L14.0531 15.0125C13.7697 14.7293 13.7505 14.2763 14.0081 13.9697C15.2532 12.4889 15.9391 10.6084 15.9391 8.67408C15.9391 6.66214 15.2047 4.7253 13.8718 3.22041C13.6015 2.9149 13.6153 2.45243 13.9029 2.16373L14.0041 2.06232C14.1543 1.9114 14.3494 1.82826 14.5733 1.83538C14.7858 1.84141 14.9868 1.93533 15.128 2.0943C16.7392 3.90835 17.6267 6.24536 17.6267 8.67408C17.6271 11.0109 16.7973 13.281 15.2904 15.066Z" fill="#666B6E"/>
</g>
<defs>
<clipPath id="clip0">
<rect width="17" height="17" fill="white" transform="translate(0.626709 0.0869141)"/>
</clipPath>
</defs>
</svg>
