<svg width="11" height="7" viewBox="0 0 11 7" fill="none" xmlns="http://www.w3.org/2000/svg">
<path fill-rule="evenodd" clip-rule="evenodd" d="M1.00618 0.933915C1.0421 0.897905 1.08477 0.869334 1.13175 0.84984C1.17873 0.830346 1.22909 0.820312 1.27995 0.820312C1.33081 0.820312 1.38118 0.830346 1.42816 0.84984C1.47513 0.869334 1.5178 0.897905 1.55372 0.933915L5.92015 5.30111L10.2866 0.933915C10.3225 0.897963 10.3652 0.869444 10.4122 0.849987C10.4592 0.830529 10.5095 0.820515 10.5603 0.820515C10.6112 0.820515 10.6615 0.830529 10.7085 0.849987C10.7555 0.869444 10.7982 0.897963 10.8341 0.933915C10.8701 0.969867 10.8986 1.01255 10.918 1.05952C10.9375 1.1065 10.9475 1.15684 10.9475 1.20769C10.9475 1.25853 10.9375 1.30888 10.918 1.35585C10.8986 1.40282 10.8701 1.44551 10.8341 1.48146L6.19392 6.12166C6.158 6.15767 6.11533 6.18624 6.06835 6.20573C6.02138 6.22522 5.97101 6.23526 5.92015 6.23526C5.86929 6.23526 5.81893 6.22522 5.77195 6.20573C5.72497 6.18624 5.6823 6.15767 5.64638 6.12166L1.00618 1.48146C0.97017 1.44554 0.9416 1.40287 0.922106 1.35589C0.902612 1.30891 0.892578 1.25855 0.892578 1.20769C0.892578 1.15682 0.902612 1.10646 0.922106 1.05948C0.9416 1.01251 0.97017 0.969835 1.00618 0.933915Z" fill="black"/>
</svg>
