<svg width="21" height="21" viewBox="0 0 21 21" fill="none" xmlns="http://www.w3.org/2000/svg">
<path d="M16.8192 0.708496H3.96204C1.99057 0.71084 0.392969 2.30844 0.390625 4.27991V17.137C0.392969 19.1085 1.99057 20.7061 3.96204 20.7085H16.8192C18.7906 20.7061 20.3882 19.1085 20.3906 17.137V4.27991C20.3882 2.30844 18.7906 0.71084 16.8192 0.708496ZM18.962 17.137C18.962 18.3205 18.0026 19.2799 16.8192 19.2799H3.96204C2.77857 19.2799 1.81918 18.3205 1.81918 17.137V4.27991C1.81918 3.09644 2.77857 2.13705 3.96204 2.13705H16.8192C18.0026 2.13705 18.962 3.09644 18.962 4.27991V17.137Z" fill="white"/>
<path d="M13.9617 9.9943H11.1045V7.13715C11.1045 6.74265 10.7847 6.42285 10.3902 6.42285C9.9957 6.42285 9.6759 6.74265 9.6759 7.13715V9.9943H6.81879C6.42429 9.9943 6.10449 10.3141 6.10449 10.7086C6.10449 11.1031 6.42429 11.4229 6.81879 11.4229H9.67595V14.28C9.67595 14.6745 9.99574 14.9943 10.3902 14.9943C10.7847 14.9943 11.1045 14.6745 11.1045 14.28V11.4229H13.9617C14.3562 11.4229 14.676 11.1031 14.676 10.7086C14.676 10.3141 14.3561 9.9943 13.9617 9.9943Z" fill="white"/>
</svg>
